# xmcd
#
# Track frame offsets:
#	182
#	15282
#	29970
#	46742
#	63737
#	80525
#	95380
#	110255
#	123850
#	141442
#	155125
#
# Disc length: 2276 seconds
#
# Revision: 1
# Processed by: cddbd v1.4PL0 Copyright (c) Steve Scherf et al.
# Submitted via: audiograbber 1.82.02
#
DISCID=9108e20b
DTITLE=America - Perspective
DYEAR=1999
DGENRE=
TTITLE0=We got all night
TTITLE1=See how the love goes
TTITLE2=Can't fall asleep to a lullabye
TTITLE3=Special girl
TTITLE4=5th avenue
TTITLE5=(It's like) you never left at all
TTITLE6=Stereo
TTITLE7=Lady with a bluebird
TTITLE8=Cinderella
TTITLE9=Unconditional love
TTITLE10=Fallin' off the world
EXTD=
EXTT0=
EXTT1=
EXTT2=
EXTT3=
EXTT4=
EXTT5=
EXTT6=
EXTT7=
EXTT8=
EXTT9=
EXTT10=
PLAYORDER=
